<mxfile host="app.diagrams.net" modified="2022-05-03T13:23:09.220Z" agent="5.0 (Macintosh; Intel Mac OS X 10_15_7) AppleWebKit/605.1.15 (KHTML, like Gecko) Version/15.4 Safari/605.1.15" etag="ZQY0Idtp0OYsw_pAqSo9" version="17.5.0" type="github">
  <diagram id="Dey0mbxA-ftvJvEnx7NU" name="第 1 页">
    <mxGraphModel dx="946" dy="673" grid="1" gridSize="10" guides="1" tooltips="1" connect="1" arrows="1" fold="1" page="1" pageScale="1" pageWidth="827" pageHeight="1169" math="0" shadow="0">
      <root>
        <mxCell id="0" />
        <mxCell id="1" parent="0" />
        <mxCell id="QuR8tDOgG2S0iCi_iGyh-1" value="print&lt;span style=&quot;white-space: pre&quot;&gt;&lt;br&gt;&lt;/span&gt;" style="rounded=0;whiteSpace=wrap;html=1;" vertex="1" parent="1">
          <mxGeometry x="170" y="200" width="140" height="30" as="geometry" />
        </mxCell>
        <mxCell id="QuR8tDOgG2S0iCi_iGyh-2" value="free" style="rounded=0;whiteSpace=wrap;html=1;" vertex="1" parent="1">
          <mxGeometry x="170" y="230" width="140" height="30" as="geometry" />
        </mxCell>
        <mxCell id="QuR8tDOgG2S0iCi_iGyh-3" value="20" style="rounded=0;whiteSpace=wrap;html=1;" vertex="1" parent="1">
          <mxGeometry x="170" y="260" width="140" height="30" as="geometry" />
        </mxCell>
        <mxCell id="QuR8tDOgG2S0iCi_iGyh-7" value="print&lt;span style=&quot;white-space: pre&quot;&gt;&lt;br&gt;&lt;/span&gt;" style="rounded=0;whiteSpace=wrap;html=1;" vertex="1" parent="1">
          <mxGeometry x="170" y="290" width="140" height="30" as="geometry" />
        </mxCell>
        <mxCell id="QuR8tDOgG2S0iCi_iGyh-8" value="free" style="rounded=0;whiteSpace=wrap;html=1;" vertex="1" parent="1">
          <mxGeometry x="170" y="320" width="140" height="30" as="geometry" />
        </mxCell>
        <mxCell id="QuR8tDOgG2S0iCi_iGyh-9" value="20" style="rounded=0;whiteSpace=wrap;html=1;" vertex="1" parent="1">
          <mxGeometry x="170" y="350" width="140" height="30" as="geometry" />
        </mxCell>
      </root>
    </mxGraphModel>
  </diagram>
</mxfile>
